HIERARCHY
ROOT Hips
{
	OFFSET -0.179506 -22.333345 2.821913
	CHANNELS 6 Xposition Yposition Zposition Zrotation Yrotation Xrotation 
	JOINT LeftUpLeg
	{
		OFFSET 6.951974 -9.140623 -0.681533
		CHANNELS 3 Zrotation Yrotation Xrotation
		JOINT LeftLeg
		{
			OFFSET 3.427654 -37.519855 -0.449580
			CHANNELS 3 Zrotation Yrotation Xrotation
			JOINT LeftFoot
			{
				OFFSET -1.359570 -39.796059 -4.369333
				CHANNELS 3 Zrotation Yrotation Xrotation
				JOINT LeftToe
				{
					OFFSET 2.635814 -5.579078 11.928840
					CHANNELS 3 Zrotation Yrotation Xrotation
					End Site
					{
						OFFSET 0.000000 0.000000 0.000000
					}
				}
			}
		}
	}
	JOINT RightUpLeg
	{
		OFFSET -6.767048 -9.052170 -0.431982
		CHANNELS 3 Zrotation Yrotation Xrotation
		JOINT RightLeg
		{
			OFFSET -3.829005 -38.256897 -0.885003
			CHANNELS 3 Zrotation Yrotation Xrotation
			JOINT RightFoot
			{
				OFFSET 1.577377 -39.841461 -4.231180
				CHANNELS 3 Zrotation Yrotation Xrotation
				JOINT RightToe
				{
					OFFSET -2.537174 -4.814398 12.334795
					CHANNELS 3 Zrotation Yrotation Xrotation
					End Site
					{
						OFFSET 0.000000 0.000000 0.000000
					}
				}
			}
		}
	}
	JOINT Spine
	{
		OFFSET -0.253288 10.896323 -2.669631
		CHANNELS 3 Zrotation Yrotation Xrotation
		JOINT Spine1
		{
			OFFSET 0.548704 13.518043 0.109247
			CHANNELS 3 Zrotation Yrotation Xrotation
			JOINT Spine2
			{
				OFFSET 0.145701 5.292222 2.542457
				CHANNELS 3 Zrotation Yrotation Xrotation
				JOINT Neck
				{
					OFFSET -0.277840 21.387037 -4.285703
					CHANNELS 3 Zrotation Yrotation Xrotation
					JOINT Head
					{
						OFFSET 0.515184 6.496960 5.134897
						CHANNELS 3 Zrotation Yrotation Xrotation
						End Site
						{
							OFFSET 0.000000 0.000000 0.000000
						}
					}
				}
				JOINT LeftShoulder
				{
					OFFSET 7.884473 12.174932 -3.408961
					CHANNELS 3 Zrotation Yrotation Xrotation
					JOINT LeftArm
					{
						OFFSET 9.097692 3.046888 -0.886815
						CHANNELS 3 Zrotation Yrotation Xrotation
						JOINT LeftForeArm
						{
							OFFSET 25.961220 -1.277207 -2.745643
							CHANNELS 3 Zrotation Yrotation Xrotation
							JOINT LeftHand
							{
								OFFSET 24.923361 0.898606 -0.117091
								CHANNELS 3 Zrotation Yrotation Xrotation
								End Site
								{
									OFFSET 0.000000 0.000000 0.000000
								}
							}
						}
					}
				}
				JOINT RightShoulder
				{
					OFFSET -8.175920 11.883285 -3.861528
					CHANNELS 3 Zrotation Yrotation Xrotation
					JOINT RightArm
					{
						OFFSET -9.601238 3.255117 -0.914307
						CHANNELS 3 Zrotation Yrotation Xrotation
						JOINT RightForeArm
						{
							OFFSET -25.374195 -1.332924 -2.140099
							CHANNELS 3 Zrotation Yrotation Xrotation
							JOINT RightHand
							{
								OFFSET -25.529810 0.777228 -0.555919
								CHANNELS 3 Zrotation Yrotation Xrotation
								End Site
								{
									OFFSET 0.000000 0.000000 0.000000
								}
							}
						}
					}
				}
			}
		}
	}
}
MOTION
Frames: 15
Frame Time: 0.033333
-1.757805 -93.716911 93.181969 176.699629 -0.671374 83.914944 -2.625344 -1.434518 -20.046409 2.005495 5.720040 1.847309 -11.107137 1.791249 1.754965 nan nan nan 0.853577 -7.840289 24.931104 -1.672952 3.131815 -3.707999 8.127321 7.510907 -9.087367 nan nan nan 2.494920 9.538734 9.353065 -0.727166 -2.839516 4.853120 -0.231828 2.864413 -1.176242 0.774625 -2.932344 0.522752 4.437798 -8.543859 -5.337752 -18.440915 7.235527 1.907362 -66.320472 3.783363 5.419847 6.791994 -22.522397 -1.773015 -6.401333 -15.032933 -26.101700 16.410390 2.099270 -1.349552 58.515598 17.025416 9.063377 -8.536551 36.377835 -3.766123 6.243082 13.280632 -18.268846 
-1.822025 -92.805565 93.009789 176.450152 -0.816877 83.904356 -2.687447 -1.662295 -20.267503 1.991203 6.460358 2.904991 -11.121186 1.670932 1.871744 nan nan nan 0.520222 -7.779655 25.546861 -1.687945 3.197877 -3.661679 7.880365 7.597297 -9.412748 nan nan nan 2.411528 9.737283 9.108720 -0.774984 -2.859167 5.225814 -0.367817 2.940883 -1.463809 0.793852 -3.014378 0.711171 4.450019 -8.590896 -5.393985 -18.596905 7.291025 1.869038 -66.306355 3.867578 5.242177 7.059323 -22.297035 -2.309941 -7.203829 -14.822346 -25.803227 16.575583 2.111497 -1.201713 58.751238 17.042690 9.054112 -9.013914 36.173858 -4.182380 7.084336 13.085749 -17.587266 
-1.893911 -91.889610 92.850204 176.104081 -1.010654 83.940943 -2.808060 -1.911491 -20.464087 2.181145 7.314378 3.898214 -11.298311 1.440584 2.805231 nan nan nan 0.093916 -7.722385 25.985090 -1.724956 3.198855 -3.419330 7.857866 7.860742 -9.514884 nan nan nan 2.160088 10.028665 8.849134 -0.719946 -2.888012 5.554214 -0.416500 3.059773 -1.732660 0.833320 -2.784427 1.073952 4.498365 -8.726875 -5.794349 -18.392238 7.028822 1.763572 -66.249870 3.802990 5.624528 6.225836 -21.340543 -3.010973 -7.177865 -15.022959 -25.980111 16.667904 2.166593 -1.182680 58.872962 16.919799 9.254349 -9.312112 36.080409 -4.680124 8.079769 12.829792 -16.998449 
-1.953337 -90.985222 92.686043 175.748713 -1.126662 84.038181 -2.879522 -2.092688 -20.684358 2.413332 7.832502 4.811788 -11.449883 1.425223 4.121500 nan nan nan -0.234376 -7.682460 26.342357 -1.826777 3.250465 -3.201565 8.046386 8.180642 -9.468095 nan nan nan 1.982956 10.185674 8.575995 -0.726381 -2.842047 5.819924 -0.470930 3.221032 -1.972316 0.900553 -2.731599 1.472828 4.652876 -8.604400 -6.337415 -18.413068 7.053188 1.764218 -66.193226 3.719338 5.911650 5.954807 -20.875042 -3.455093 -6.813627 -15.136461 -26.025366 16.760223 2.175387 -0.966863 58.817856 16.926359 9.380716 -9.112192 36.045926 -4.874367 8.253700 12.839663 -17.192792 
-2.024457 -90.065506 92.529984 175.421191 -1.268380 84.232770 -2.968557 -2.167501 -20.935517 2.464849 8.051412 5.479985 -11.465878 1.539102 5.504937 nan nan nan -0.655568 -7.656833 26.602784 -1.826964 3.319836 -3.012409 8.294155 8.499658 -9.321683 nan nan nan 1.839315 10.225825 8.174556 -0.813478 -2.753554 6.040750 -0.540399 3.337156 -2.171749 0.940681 -3.014565 1.934061 4.728909 -8.126170 -6.774647 -18.706245 7.414853 1.832669 -66.149342 3.651362 5.740049 6.353290 -20.860888 -3.821205 -6.745910 -14.789359 -25.694317 16.857098 2.120858 -0.616680 58.833734 17.055427 9.362716 -8.918946 35.850761 -5.043740 7.772905 13.103003 -17.210813 
-2.106506 -89.113380 92.398224 174.998941 -1.444476 84.326113 -3.129004 -2.082457 -21.057584 2.460597 8.206039 6.048605 -11.364680 1.675717 6.475500 nan nan nan -1.112217 -7.587354 26.950475 -1.918801 3.472586 -2.801545 9.019718 8.816426 -8.943061 nan nan nan 1.758931 10.256275 7.996496 -0.973042 -2.521944 6.119579 -0.578882 3.401856 -2.398609 0.958701 -3.651497 2.468270 4.727226 -7.491415 -7.083224 -19.314036 7.936658 1.958349 -66.170546 3.674407 5.167877 7.475091 -21.222673 -4.059518 -7.074070 -14.182558 -25.110974 16.883212 2.058634 -0.346914 58.995945 16.974620 9.317194 -8.933670 35.588016 -4.998989 6.883234 13.229031 -16.780696 
-2.154632 -88.131317 92.289963 174.504408 -1.597131 84.497035 -3.240213 -1.989396 -21.183805 2.315328 8.228462 6.490064 -11.005228 2.203506 7.004808 nan nan nan -1.447904 -7.420183 27.084463 -2.060570 3.781851 -2.346439 9.980451 8.945120 -8.580517 nan nan nan 1.622735 10.364650 7.484972 -1.076951 -2.235834 6.399492 -0.720370 3.500401 -2.573754 1.045131 -4.148154 3.006171 4.900381 -7.074621 -7.384239 -19.995789 8.135105 2.145342 -65.535986 4.125759 5.265707 7.826732 -22.382594 -4.046738 -7.136416 -13.594537 -25.962928 17.127815 2.004601 -0.252348 59.019284 16.639316 9.505212 -9.024233 35.457957 -5.063672 7.124558 12.935975 -16.485062 
-2.180634 -87.146980 92.202934 174.075058 -1.720225 84.746150 -3.368473 -1.944312 -21.380637 2.256550 8.320069 6.906076 -10.824755 2.732233 7.645962 nan nan nan -1.737626 -7.233469 27.078358 -2.121107 3.980376 -1.816814 10.448155 9.085517 -8.338124 nan nan nan 1.465671 10.452264 6.722587 -1.157039 -2.055188 6.763832 -0.870080 3.632064 -2.569829 1.150570 -4.261735 3.329801 5.089279 -6.867927 -7.725424 -20.276927 8.187758 2.206367 -65.303707 4.413830 5.404628 8.110237 -22.981250 -4.457904 -7.126441 -13.288814 -26.510957 17.273680 1.946102 -0.220074 59.105170 16.414562 9.583479 -8.702301 35.223113 -4.889184 8.360440 12.740089 -16.738499 
-2.202037 -86.145836 92.140717 173.557249 -1.863304 84.928519 -3.539768 -1.704699 -21.486743 2.243023 8.332655 7.414642 -10.626602 2.800550 8.346743 nan nan nan -2.162694 -7.140154 27.057181 -2.164048 4.226615 -1.149548 10.581178 9.299406 -8.152376 nan nan nan 1.319540 10.554351 6.056809 -1.251057 -1.895250 7.048200 -1.010362 3.783067 -2.570946 1.233550 -4.243766 3.550075 5.169688 -6.786999 -7.771854 -20.273900 8.274893 2.268589 -65.382565 4.519438 5.357238 8.343894 -23.151192 -4.815387 -6.546450 -13.246770 -26.418157 17.251611 1.916624 -0.060148 59.445762 16.219125 9.571833 -8.453288 34.914285 -4.676857 8.939371 12.778257 -16.703140 
-2.236161 -85.137924 92.112991 173.127704 -2.014892 85.111001 -3.666606 -1.626485 -21.522227 2.131039 8.405987 7.988855 -10.450080 2.635763 9.096076 nan nan nan -2.467199 -6.955716 26.999205 -2.311643 4.283412 -0.409702 10.776305 9.399335 -7.824782 nan nan nan 1.149753 10.656691 5.485197 -1.326409 -1.735128 7.176601 -1.084202 3.852540 -2.603587 1.329985 -4.259688 3.829733 5.175320 -6.806832 -7.749024 -20.125317 8.498501 2.439149 -65.772630 4.364541 5.089222 8.811868 -22.994022 -5.242643 -6.422897 -13.366181 -26.126561 17.111054 1.662550 0.099531 59.943212 16.160194 9.499433 -8.130594 34.337345 -4.162207 9.321845 12.894474 -16.274020 
-2.283833 -84.132797 92.122208 172.810660 -2.256898 85.264193 -3.798523 -1.882175 -21.432414 1.948890 8.501778 8.516984 -10.145939 2.793980 9.847838 nan nan nan -2.825150 -6.714103 26.950322 -2.439231 4.295177 0.394752 11.151683 9.408136 -7.428005 nan nan nan 0.861202 10.751953 4.872106 -1.361735 -1.643400 7.323159 -1.175296 3.893278 -2.539816 1.493439 -4.194813 4.172565 5.178652 -6.869105 -7.896373 -19.927407 8.789192 2.609767 -66.039815 4.102887 5.173232 9.095179 -22.849762 -5.432252 -6.355572 -13.379150 -26.446915 17.065333 1.224367 0.146426 60.320646 16.135843 9.725042 -7.697852 33.687372 -3.511327 9.568507 12.735291 -16.286944 
-2.334255 -83.148239 92.155586 172.604626 -2.475005 85.371713 -3.925959 -2.240420 -21.366517 1.850229 8.579879 9.292302 -9.702443 3.199813 10.289099 nan nan nan -3.150397 -6.513439 26.849181 -2.494314 4.398355 1.348268 11.607099 9.340190 -6.978970 nan nan nan 0.613700 10.855926 4.292978 -1.361089 -1.596526 7.454285 -1.324996 3.933875 -2.406826 1.623184 -4.095166 4.448291 5.192449 -7.039818 -7.963707 -19.702636 8.970616 2.825126 -66.116406 3.851586 5.486744 9.010305 -22.868104 -5.394508 -5.904105 -13.487661 -27.056025 17.096513 0.906844 0.195385 60.611063 15.937811 10.101730 -7.497803 33.183296 -3.123372 9.161601 12.653396 -16.513144 
-2.373623 -82.148445 92.211189 172.432100 -2.646880 85.434450 -4.034115 -2.471237 -21.298476 1.743958 8.703008 10.276657 -9.398201 3.496398 10.404292 nan nan nan -3.354222 -6.267975 26.673423 -2.569066 4.485405 2.512991 12.000282 9.139510 -6.471603 nan nan nan 0.407954 10.874990 3.954859 -1.384723 -1.532331 7.372418 -1.424634 3.944406 -2.421882 1.691007 -4.146490 4.744121 5.273889 -7.077683 -7.812167 -19.508875 9.152170 3.003671 -66.318137 3.755116 5.472902 9.180154 -22.786151 -5.351370 -6.012388 -13.677304 -27.299591 17.110422 0.827156 0.457108 60.965639 15.573523 10.198675 -7.558239 32.744450 -2.950399 9.089593 12.783807 -16.464441 
-2.404057 -81.116829 92.295891 172.263041 -2.789351 85.500529 -4.099290 -2.664679 -21.191403 1.551525 8.786917 11.260227 -9.211093 3.526881 10.235927 nan nan nan -3.481538 -5.988312 26.394463 -2.664425 4.487636 3.821270 12.358364 8.845268 -5.885129 nan nan nan 0.222637 10.824896 3.519358 -1.416917 -1.488212 7.387182 -1.508660 3.955717 -2.477149 1.786010 -4.277655 5.114978 5.371504 -6.929598 -7.799853 -19.361830 9.306406 3.176100 -66.484364 3.729809 5.327348 9.373293 -22.797785 -5.351928 -6.525463 -13.635429 -27.517873 17.005893 0.709793 0.638191 61.462559 15.196053 10.328810 -7.485419 32.178228 -2.637250 9.557140 12.451176 -16.452487 
-2.428964 -80.096565 92.401840 172.175951 -2.924563 85.726740 -4.067552 -2.994902 -21.221559 1.238385 9.038829 12.099392 -8.918665 3.320007 9.826665 nan nan nan -3.540950 -5.673203 25.849018 -2.751125 4.363944 5.266095 12.921569 8.548711 -5.210174 nan nan nan -0.086089 10.762745 2.713624 -1.353791 -1.537296 7.654812 -1.602262 3.975803 -2.531499 1.897762 -4.248743 5.503778 5.438629 -6.838130 -7.898790 -19.148250 9.406967 3.395236 -66.604548 3.524593 5.450742 9.363076 -22.697349 -5.519622 -6.210484 -13.526356 -27.574680 16.994918 0.504487 0.803101 61.788825 14.873605 10.679207 -7.237537 31.687376 -2.287779 9.492706 12.107561 -16.409083 
